[Header]                  # Header keywords are followed by a single value
FileType htr              # single word string
DataType HTRS             # Hierarchical translations followed by rotations and Scale
FileVersion 1             # integer
NumSegments   22        # integer
NumFrames  7          # integer
DataFrameRate    60      # integer
EulerRotationOrder ZYX    # one word string
CalibrationUnits mm   # one word string
RotationUnits Degrees     # one word string
GlobalAxisofGravity Y        # character, X or Y or Z
BoneLengthAxis Y
ScaleFactor 1.0000
[SegmentNames&Hierarchy]
#CHILD         PARENT
LowerTorso	GLOBAL
MidTorso1	LowerTorso
MidTorso2	MidTorso1
UpperTorso	MidTorso2
Neck	UpperTorso
Head	Neck
LCollar	UpperTorso
LUpArm	LCollar
LLowArm	LUpArm
LHand	LLowArm
RCollar	UpperTorso
RUpArm	RCollar
RLowArm	RUpArm
RHand	RLowArm
RThigh	LowerTorso
RLowLeg	RThigh
RFoot	RLowLeg
RToe	RFoot
LThigh	LowerTorso
LLowLeg	LThigh
LFoot	LLowLeg
LToe	LFoot
[BasePosition]
#SegmentName Tx, Ty, Tz, Rx, Ry, Rz, BoneLength
LowerTorso	245.857281	950.546486	248.637529	3.098927	-0.002210	0.042162	59.711333	
MidTorso1	0.000000	59.711333	0.000000	12.937915	-0.002675	-0.030860	59.789096	
MidTorso2	0.000000	59.789096	0.000000	-8.588562	0.003459	0.011437	83.428957	
UpperTorso	0.000000	83.428957	0.000000	-7.932331	-0.001012	-0.030752	241.957510	
Neck	0.000000	241.957510	0.000000	-0.094097	0.000027	0.097203	231.829248	
Head	0.000000	231.829248	0.000000	90.077927	-0.000108	-0.089730	91.574582	
LCollar	6.813599	237.360039	0.023153	2.387721	-0.015547	-90.013255	183.371476	
LUpArm	0.000000	183.371476	0.000000	5.326590	-0.698152	6.338799	275.550262	
LLowArm	0.000000	275.550262	0.000000	0.023606	-0.000027	0.019344	209.826044	
LHand	0.000000	209.826044	0.000000	0.056212	0.000012	-0.012212	145.298309	
RCollar	-7.320367	237.102711	-0.039007	12.450709	0.004248	90.115141	167.861514	
RUpArm	0.000000	167.861514	0.000000	-6.122028	-0.820027	-2.646363	291.470253	
RLowArm	0.000000	291.470253	0.000000	0.000001	0.000000	-0.000274	217.757286	
RHand	0.000000	217.757286	0.000000	0.000373	0.000000	0.000511	137.536656	
RThigh	-124.450736	-52.205152	84.621319	5.924306	0.309605	177.207098	421.029795	
RLowLeg	0.000000	421.029795	0.000000	-15.759515	-0.017515	3.120486	365.105663	
RFoot	0.000000	365.105663	0.000000	55.897303	0.149984	-4.373210	148.323736	
RToe	0.000000	148.323736	0.000000	45.100933	2.167436	3.449341	115.306227	
LThigh	124.374466	-52.388373	84.621456	5.928259	-0.221338	-178.140447	426.796764	
LLowLeg	0.000000	426.796764	0.000000	-15.759694	0.017551	-3.120303	361.153822	
LFoot	0.000000	361.153822	0.000000	55.897848	-0.150027	4.373120	146.718976	
LToe	0.000000	146.718976	0.000000	45.100748	-2.167253	-3.449489	114.060784	
#Beginning of Data. Separated by tabs
[LowerTorso]
#Fr     Tx      Ty      Tz      Rx      Ry      Rz      SF
999	-135.442429	-11.351016	-759.833923	9.204273	25.398685	0.579053	1.000000	
1000	-137.619736	-10.363878	-760.575012	9.054633	25.521618	0.364896	1.000000	
1001	-138.511932	-9.155980	-760.038757	8.599793	25.659605	0.118398	1.000000	
1002	-137.988998	-7.790739	-758.416016	7.896299	25.783697	-0.108878	1.000000	
1003	-136.152252	-6.316456	-756.009033	7.056319	25.902288	-0.308175	1.000000	
1004	-133.574173	-4.998569	-754.362549	5.862176	25.715271	-0.100429	1.000000	
1005	-130.022446	-3.787106	-751.498535	4.996794	25.822769	-0.266916	1.000000	
[MidTorso1]
#Fr     Tx      Ty      Tz      Rx      Ry      Rz      SF
999	0.000000	0.000000	0.000000	5.374663	0.027837	-0.783707	1.000000	
1000	0.000000	0.000000	0.000000	5.037741	0.203392	-0.570807	1.000000	
1001	0.000000	0.000000	0.000000	4.658458	0.342500	-0.363083	1.000000	
1002	0.000000	0.000000	0.000000	4.254432	0.428643	-0.163982	1.000000	
1003	0.000000	0.000000	0.000000	3.832189	0.456382	0.041310	1.000000	
1004	0.000000	0.000000	0.000000	3.771314	0.653520	0.038466	1.000000	
1005	0.000000	0.000000	0.000000	3.400728	0.619367	0.268674	1.000000	
[MidTorso2]
#Fr     Tx      Ty      Tz      Rx      Ry      Rz      SF
999	0.000000	0.000000	0.000000	5.373934	0.143443	-0.770655	1.000000	
1000	0.000000	0.000000	0.000000	5.037496	0.285308	-0.533929	1.000000	
1001	0.000000	0.000000	0.000000	4.658578	0.391915	-0.307763	1.000000	
1002	0.000000	0.000000	0.000000	4.254757	0.447443	-0.098035	1.000000	
1003	0.000000	0.000000	0.000000	3.832537	0.444301	0.109092	1.000000	
1004	0.000000	0.000000	0.000000	3.771982	0.639665	0.135722	1.000000	
1005	0.000000	0.000000	0.000000	3.401172	0.571594	0.358239	1.000000	
[UpperTorso]
#Fr     Tx      Ty      Tz      Rx      Ry      Rz      SF
999	0.000000	0.000000	0.000000	5.373198	0.251272	-0.743050	1.000000	
1000	0.000000	0.000000	0.000000	5.037142	0.358935	-0.489046	1.000000	
1001	0.000000	0.000000	0.000000	4.658475	0.433112	-0.250369	1.000000	
1002	0.000000	0.000000	0.000000	4.254759	0.458952	-0.035023	1.000000	
1003	0.000000	0.000000	0.000000	3.832507	0.427032	0.169648	1.000000	
1004	0.000000	0.000000	0.000000	3.772080	0.616821	0.222980	1.000000	
1005	0.000000	0.000000	0.000000	3.401042	0.518497	0.433939	1.000000	
[Neck]
#Fr     Tx      Ty      Tz      Rx      Ry      Rz      SF
999	0.000000	0.000000	0.000000	-36.104336	-22.598450	13.960510	1.000000	
1000	0.000000	0.000000	0.000000	-30.969574	-24.705153	12.681440	1.000000	
1001	0.000000	0.000000	0.000000	-25.162989	-26.687305	11.261335	1.000000	
1002	0.000000	0.000000	0.000000	-19.003345	-28.572891	9.708454	1.000000	
1003	0.000000	0.000000	0.000000	-12.886376	-30.355110	8.016562	1.000000	
1004	0.000000	0.000000	0.000000	-8.642006	-28.450037	7.075671	1.000000	
1005	0.000000	0.000000	0.000000	-4.478164	-29.518114	5.969832	1.000000	
[Head]
#Fr     Tx      Ty      Tz      Rx      Ry      Rz      SF
999	0.000000	0.000000	0.000000	16.933283	10.949504	1.564275	1.000000	
1000	0.000000	0.000000	0.000000	13.451570	10.592722	0.480235	1.000000	
1001	0.000000	0.000000	0.000000	9.951119	10.150810	-0.546717	1.000000	
1002	0.000000	0.000000	0.000000	6.670785	9.774725	-1.494693	1.000000	
1003	0.000000	0.000000	0.000000	3.803349	9.527586	-2.341733	1.000000	
1004	0.000000	0.000000	0.000000	1.519339	8.315841	0.046774	1.000000	
1005	0.000000	0.000000	0.000000	0.211147	7.877795	-0.333729	1.000000	
[LCollar]
#Fr     Tx      Ty      Tz      Rx      Ry      Rz      SF
999	0.000000	0.000000	0.000000	4.070340	0.889565	-12.306924	1.000000	
1000	0.000000	0.000000	0.000000	4.068221	0.914714	-12.650174	1.000000	
1001	0.000000	0.000000	0.000000	4.112908	0.940214	-12.854105	1.000000	
1002	0.000000	0.000000	0.000000	4.226882	0.974421	-12.957671	1.000000	
1003	0.000000	0.000000	0.000000	4.370371	1.009876	-12.985596	1.000000	
1004	0.000000	0.000000	0.000000	5.015242	1.138844	-12.760711	1.000000	
1005	0.000000	0.000000	0.000000	5.026700	1.126220	-12.595842	1.000000	
[LUpArm]
#Fr     Tx      Ty      Tz      Rx      Ry      Rz      SF
999	0.000000	0.000000	0.000000	21.830635	25.794689	-52.246086	1.000000	
1000	0.000000	0.000000	0.000000	21.642200	25.637693	-51.989849	1.000000	
1001	0.000000	0.000000	0.000000	21.217144	25.550949	-51.837715	1.000000	
1002	0.000000	0.000000	0.000000	20.461113	25.408777	-51.879139	1.000000	
1003	0.000000	0.000000	0.000000	19.473970	25.192949	-52.116623	1.000000	
1004	0.000000	0.000000	0.000000	19.254126	25.213554	-51.848778	1.000000	
1005	0.000000	0.000000	0.000000	18.516762	24.958925	-52.272415	1.000000	
[LLowArm]
#Fr     Tx      Ty      Tz      Rx      Ry      Rz      SF
999	0.000000	0.000000	0.000000	90.361275	-0.012278	-0.012429	1.000000	
1000	0.000000	0.000000	0.000000	89.506248	-0.012278	-0.012245	1.000000	
1001	0.000000	0.000000	0.000000	89.259750	-0.012278	-0.012192	1.000000	
1002	0.000000	0.000000	0.000000	89.654358	-0.012278	-0.012277	1.000000	
1003	0.000000	0.000000	0.000000	90.554726	-0.012277	-0.012470	1.000000	
1004	0.000000	0.000000	0.000000	91.977814	-0.012270	-0.012776	1.000000	
1005	0.000000	0.000000	0.000000	93.372475	-0.012255	-0.013075	1.000000	
[LHand]
#Fr     Tx      Ty      Tz      Rx      Ry      Rz      SF
999	0.000000	0.000000	0.000000	3.224087	19.565722	3.612716	1.000000	
1000	0.000000	0.000000	0.000000	3.514368	21.358894	3.711406	1.000000	
1001	0.000000	0.000000	0.000000	4.304945	22.734100	3.989017	1.000000	
1002	0.000000	0.000000	0.000000	5.300880	23.107683	4.196724	1.000000	
1003	0.000000	0.000000	0.000000	6.317788	22.028696	4.230670	1.000000	
1004	0.000000	0.000000	0.000000	5.621577	19.935919	6.104859	1.000000	
1005	0.000000	0.000000	0.000000	6.245667	16.706715	5.923373	1.000000	
[RCollar]
#Fr     Tx      Ty      Tz      Rx      Ry      Rz      SF
999	0.000000	0.000000	0.000000	7.755257	-1.559645	11.302229	1.000000	
1000	0.000000	0.000000	0.000000	8.302191	-1.781514	12.027145	1.000000	
1001	0.000000	0.000000	0.000000	8.332256	-1.902922	12.774851	1.000000	
1002	0.000000	0.000000	0.000000	7.926510	-1.905225	13.430097	1.000000	
1003	0.000000	0.000000	0.000000	7.227742	-1.787230	13.816470	1.000000	
1004	0.000000	0.000000	0.000000	5.733143	-1.348958	13.196986	1.000000	
1005	0.000000	0.000000	0.000000	4.905605	-1.124621	12.881271	1.000000	
[RUpArm]
#Fr     Tx      Ty      Tz      Rx      Ry      Rz      SF
999	0.000000	0.000000	0.000000	24.540482	12.869110	35.688324	1.000000	
1000	0.000000	0.000000	0.000000	26.047815	11.462770	33.529343	1.000000	
1001	0.000000	0.000000	0.000000	27.659977	9.012779	31.741198	1.000000	
1002	0.000000	0.000000	0.000000	29.377909	5.767634	30.524118	1.000000	
1003	0.000000	0.000000	0.000000	31.016918	1.945123	30.052868	1.000000	
1004	0.000000	0.000000	0.000000	32.329319	-1.404595	31.585472	1.000000	
1005	0.000000	0.000000	0.000000	32.887001	-5.516356	32.510952	1.000000	
[RLowArm]
#Fr     Tx      Ty      Tz      Rx      Ry      Rz      SF
999	0.000000	0.000000	0.000000	105.377090	0.000181	0.000185	1.000000	
1000	0.000000	0.000000	0.000000	101.794083	0.000182	0.000175	1.000000	
1001	0.000000	0.000000	0.000000	97.555046	0.000182	0.000163	1.000000	
1002	0.000000	0.000000	0.000000	92.971634	0.000182	0.000150	1.000000	
1003	0.000000	0.000000	0.000000	88.453209	0.000181	0.000138	1.000000	
1004	0.000000	0.000000	0.000000	84.585159	0.000179	0.000127	1.000000	
1005	0.000000	0.000000	0.000000	81.475868	0.000176	0.000118	1.000000	
[RHand]
#Fr     Tx      Ty      Tz      Rx      Ry      Rz      SF
999	0.000000	0.000000	0.000000	-5.252285	2.502431	-14.471467	1.000000	
1000	0.000000	0.000000	0.000000	-5.043845	5.266358	-15.206916	1.000000	
1001	0.000000	0.000000	0.000000	-5.298084	7.944525	-16.614290	1.000000	
1002	0.000000	0.000000	0.000000	-6.297780	10.545577	-18.180882	1.000000	
1003	0.000000	0.000000	0.000000	-7.970889	12.965574	-19.873272	1.000000	
1004	0.000000	0.000000	0.000000	-4.989287	13.994780	-18.517487	1.000000	
1005	0.000000	0.000000	0.000000	-6.660558	16.632757	-20.154528	1.000000	
[RThigh]
#Fr     Tx      Ty      Tz      Rx      Ry      Rz      SF
999	0.000000	0.000000	0.000000	11.741287	5.828897	-0.705251	1.000000	
1000	0.000000	0.000000	0.000000	11.309279	6.716095	-0.450663	1.000000	
1001	0.000000	0.000000	0.000000	10.564805	6.769258	-0.236120	1.000000	
1002	0.000000	0.000000	0.000000	9.545489	6.230760	-0.131970	1.000000	
1003	0.000000	0.000000	0.000000	8.399365	5.611110	-0.148897	1.000000	
1004	0.000000	0.000000	0.000000	7.161982	4.479045	-0.672825	1.000000	
1005	0.000000	0.000000	0.000000	6.322645	4.464698	-0.887217	1.000000	
[RLowLeg]
#Fr     Tx      Ty      Tz      Rx      Ry      Rz      SF
999	0.000000	0.000000	0.000000	-20.956356	0.000015	-0.000005	1.000000	
1000	0.000000	0.000000	0.000000	-20.009260	0.000014	-0.000005	1.000000	
1001	0.000000	0.000000	0.000000	-19.214045	0.000014	-0.000004	1.000000	
1002	0.000000	0.000000	0.000000	-18.579979	0.000013	-0.000004	1.000000	
1003	0.000000	0.000000	0.000000	-18.153015	0.000013	-0.000004	1.000000	
1004	0.000000	0.000000	0.000000	-18.650564	0.000013	-0.000004	1.000000	
1005	0.000000	0.000000	0.000000	-18.978960	0.000014	-0.000004	1.000000	
[RFoot]
#Fr     Tx      Ty      Tz      Rx      Ry      Rz      SF
999	0.000000	0.000000	0.000000	6.307875	6.949528	-6.117010	1.000000	
1000	0.000000	0.000000	0.000000	5.963664	6.025516	-5.907155	1.000000	
1001	0.000000	0.000000	0.000000	5.379808	5.910882	-5.816918	1.000000	
1002	0.000000	0.000000	0.000000	4.651203	6.433698	-5.678406	1.000000	
1003	0.000000	0.000000	0.000000	3.836536	7.215871	-5.288994	1.000000	
1004	0.000000	0.000000	0.000000	3.738971	8.969765	-4.160056	1.000000	
1005	0.000000	0.000000	0.000000	2.731406	9.447888	-3.243199	1.000000	
[RToe]
#Fr     Tx      Ty      Tz      Rx      Ry      Rz      SF
999	0.000000	0.000000	0.000000	7.540854	0.000003	0.000004	1.000000	
1000	0.000000	0.000000	0.000000	7.531073	0.000003	0.000004	1.000000	
1001	0.000000	0.000000	0.000000	7.568836	0.000003	0.000004	1.000000	
1002	0.000000	0.000000	0.000000	7.690764	0.000003	0.000004	1.000000	
1003	0.000000	0.000000	0.000000	7.880808	0.000003	0.000004	1.000000	
1004	0.000000	0.000000	0.000000	7.227324	0.000003	0.000004	1.000000	
1005	0.000000	0.000000	0.000000	7.546076	0.000003	0.000004	1.000000	
[LThigh]
#Fr     Tx      Ty      Tz      Rx      Ry      Rz      SF
999	0.000000	0.000000	0.000000	21.198027	0.937474	3.598821	1.000000	
1000	0.000000	0.000000	0.000000	22.050167	-1.599661	3.114079	1.000000	
1001	0.000000	0.000000	0.000000	22.254116	-4.115522	2.528503	1.000000	
1002	0.000000	0.000000	0.000000	21.741968	-6.354671	1.897164	1.000000	
1003	0.000000	0.000000	0.000000	20.567186	-8.093604	1.311113	1.000000	
1004	0.000000	0.000000	0.000000	18.081936	-8.644100	0.388410	1.000000	
1005	0.000000	0.000000	0.000000	15.864038	-8.928835	0.044064	1.000000	
[LLowLeg]
#Fr     Tx      Ty      Tz      Rx      Ry      Rz      SF
999	0.000000	0.000000	0.000000	-33.921345	0.000015	-0.000005	1.000000	
1000	0.000000	0.000000	0.000000	-35.548229	0.000016	-0.000005	1.000000	
1001	0.000000	0.000000	0.000000	-37.015194	0.000017	-0.000006	1.000000	
1002	0.000000	0.000000	0.000000	-38.087578	0.000017	-0.000006	1.000000	
1003	0.000000	0.000000	0.000000	-38.454182	0.000017	-0.000006	1.000000	
1004	0.000000	0.000000	0.000000	-36.922707	0.000017	-0.000006	1.000000	
1005	0.000000	0.000000	0.000000	-35.179905	0.000016	-0.000005	1.000000	
[LFoot]
#Fr     Tx      Ty      Tz      Rx      Ry      Rz      SF
999	0.000000	0.000000	0.000000	-5.770976	-5.946291	-5.290672	1.000000	
1000	0.000000	0.000000	0.000000	-6.442716	-8.111799	-4.403231	1.000000	
1001	0.000000	0.000000	0.000000	-6.309557	-9.793324	-3.338857	1.000000	
1002	0.000000	0.000000	0.000000	-5.452384	-10.355752	-2.303873	1.000000	
1003	0.000000	0.000000	0.000000	-4.212768	-9.753228	-1.519629	1.000000	
1004	0.000000	0.000000	0.000000	-4.946228	-6.517581	0.567424	1.000000	
1005	0.000000	0.000000	0.000000	-3.659776	-5.534120	0.545391	1.000000	
[LToe]
#Fr     Tx      Ty      Tz      Rx      Ry      Rz      SF
999	0.000000	0.000000	0.000000	5.665757	0.000022	0.000000	1.000000	
1000	0.000000	0.000000	0.000000	5.318133	0.000021	0.000000	1.000000	
1001	0.000000	0.000000	0.000000	4.578326	0.000018	0.000000	1.000000	
1002	0.000000	0.000000	0.000000	3.814230	0.000015	0.000000	1.000000	
1003	0.000000	0.000000	0.000000	3.460876	0.000013	0.000000	1.000000	
1004	0.000000	0.000000	0.000000	5.713076	0.000022	0.000000	1.000000	
1005	0.000000	0.000000	0.000000	6.217521	0.000024	0.000000	1.000000	
[EndOfFile]
